<?xml version="1.0" standalone="no"?>
<!DOCTYPE svg PUBLIC "-//W3C//DTD SVG 20010904//EN"
 "http://www.w3.org/TR/2001/REC-SVG-20010904/DTD/svg10.dtd">
<svg version="1.0" xmlns="http://www.w3.org/2000/svg"
 width="339.000000pt" height="332.000000pt" viewBox="0 0 339.000000 332.000000"
 preserveAspectRatio="xMidYMid meet">

<g transform="translate(0.000000,332.000000) scale(0.100000,-0.100000)"
fill="#000000" stroke="none">
<path d="M1421 3118 c4 -35 3 -99 -2 -143 -5 -44 -9 -107 -9 -139 l0 -59 -113
-108 c-91 -86 -116 -116 -126 -150 -19 -63 -122 -265 -207 -406 -41 -67 -74
-130 -74 -140 0 -10 10 -34 22 -53 12 -19 27 -53 33 -75 11 -36 16 -41 56 -50
24 -5 50 -14 58 -19 19 -12 132 -7 148 6 7 5 15 26 18 47 10 60 25 89 66 125
52 48 89 65 172 82 40 8 87 25 105 38 36 25 82 83 82 102 0 7 4 15 9 18 5 3 5
-14 0 -40 -31 -166 -82 -263 -293 -553 -168 -232 -221 -367 -197 -502 l13 -69
518 0 517 0 -35 37 c-19 21 -47 63 -61 93 -24 50 -26 66 -25 175 1 106 5 135
38 249 61 216 78 316 78 461 1 146 -14 228 -61 350 -80 207 -238 364 -438 434
-74 26 -74 26 -91 76 -26 75 -69 143 -135 213 -33 34 -63 62 -67 62 -3 0 -3
-28 1 -62z m-98 -609 c-17 -30 -82 -83 -91 -74 -2 2 1 19 8 39 10 32 37 49 98
65 2 1 -5 -13 -15 -30z"/>
<path d="M1657 2928 c16 -43 19 -45 87 -67 102 -33 188 -83 267 -158 118 -111
190 -240 229 -406 44 -194 35 -350 -39 -641 -27 -105 -52 -213 -55 -241 l-7
-50 16 35 c9 19 55 86 103 150 84 111 172 265 172 302 0 15 -8 18 -47 18 l-47
0 41 43 c22 23 46 53 53 65 31 62 19 331 -17 367 -8 8 -32 15 -54 15 -21 0
-39 3 -39 8 1 4 14 23 30 42 17 19 30 44 30 55 0 37 -75 178 -129 243 -132
159 -307 248 -508 259 l-102 6 16 -45z"/>
<path d="M1315 2828 c-63 -73 -109 -184 -49 -117 10 12 38 35 62 51 37 26 42
33 42 68 0 22 -4 40 -9 40 -5 0 -26 -19 -46 -42z"/>
<path d="M1195 965 c-14 -13 -25 -31 -25 -40 0 -19 35 -55 55 -55 8 0 22 -11
31 -25 36 -55 -17 -135 -125 -190 -27 -13 -58 -36 -70 -51 -41 -52 -39 -131 6
-184 l25 -30 617 0 618 0 20 23 c74 80 51 188 -51 243 -80 43 -113 72 -130
114 -20 52 -8 85 38 104 43 18 56 54 32 91 l-16 25 -501 0 -500 0 -24 -25z"/>
<path d="M1063 352 c-33 -5 -53 -40 -53 -94 l0 -48 700 0 700 0 0 50 c0 41 -5
56 -25 76 l-25 25 -638 -2 c-350 -2 -647 -5 -659 -7z"/>
</g>
</svg>
